<svg xmlns="http://www.w3.org/2000/svg" viewBox="0 0 432.89 342.34"><defs><style>.cls-1{fill:#1d1d1b;}.cls-2{fill:#fff;}.cls-3{fill:#686db1;}.cls-4{fill:#e73337;}.cls-5{fill:#249eda;}</style></defs><g id="black"><path class="cls-1" d="M256.22,233.22l-14.34,16.45c34.26,3.2,58.85,11.93,58.85,22.2,0,13-39.26,23.5-87.68,23.5s-87.68-10.52-87.68-23.5c0-10.12,23.85-18.74,57.29-22.05L168.33,233.4C117.39,239.49,81,255.69,81,274.72c0,24.25,59.14,43.91,132.09,43.91S345.14,299,345.14,274.72C345.14,255.5,308,239.16,256.22,233.22Z"/><path class="cls-1" d="M311.58,123.31a99.39,99.39,0,1,0-170.09,69.82l70.71,81.09,70.71-81.09h0A99.07,99.07,0,0,0,311.58,123.31ZM212.2,197a77.92,77.92,0,1,1,77.92-77.91A77.91,77.91,0,0,1,212.2,197Z"/><path class="cls-1" d="M30.26,73.86H98V90.59H50.16V110H94v15.46H50.16v22.19H99v16.73H30.26Z"/><path class="cls-1" d="M172.14,73.86h39c23.45,0,41.08,14.83,41.08,44.75,0,26.24-13.44,45.76-41.08,45.76h-39ZM192,147.64h17.75c11.53,0,22.56-7.1,22.56-27.13,0-18.25-6.46-29.92-26.11-29.92H192Z"/><path class="cls-1" d="M402.63,129.07c0,24.46-14.45,36.38-38.66,36.38-24.47,0-38.54-11.66-38.54-36.38V72.78h19.9v56.29c0,9.88,2.54,19.65,18.64,19.65,14.19,0,18.76-6.09,18.76-19.65V72.78h19.9Z"/></g><g id="white"><path class="cls-2" d="M256.22,233.22l-14.34,16.45c34.26,3.2,58.85,11.93,58.85,22.2,0,13-39.26,23.5-87.68,23.5s-87.68-10.52-87.68-23.5c0-10.12,23.85-18.74,57.29-22.05L168.33,233.4C117.39,239.49,81,255.69,81,274.72c0,24.25,59.14,43.91,132.09,43.91S345.14,299,345.14,274.72C345.14,255.5,308,239.16,256.22,233.22Z"/><path class="cls-2" d="M311.58,123.31a99.39,99.39,0,1,0-170.09,69.82l70.71,81.09,70.71-81.09h0A99.07,99.07,0,0,0,311.58,123.31ZM212.2,197a77.92,77.92,0,1,1,77.92-77.91A77.91,77.91,0,0,1,212.2,197Z"/><path class="cls-2" d="M30.26,73.86H98V90.59H50.16V110H94v15.46H50.16v22.19H99v16.73H30.26Z"/><path class="cls-2" d="M172.14,73.86h39c23.45,0,41.08,14.83,41.08,44.75,0,26.24-13.44,45.76-41.08,45.76h-39ZM192,147.64h17.75c11.53,0,22.56-7.1,22.56-27.13,0-18.25-6.46-29.92-26.11-29.92H192Z"/><path class="cls-2" d="M402.63,129.07c0,24.46-14.45,36.38-38.66,36.38-24.47,0-38.54-11.66-38.54-36.38V72.78h19.9v56.29c0,9.88,2.54,19.65,18.64,19.65,14.19,0,18.76-6.09,18.76-19.65V72.78h19.9Z"/></g><g id="Vrstva_1" data-name="Vrstva 1"><path class="cls-3" d="M212.2,230.82c-72.95,0-132.09,19.66-132.09,43.9s59.14,43.91,132.09,43.91S344.28,299,344.28,274.72,285.15,230.82,212.2,230.82Zm0,64.56c-48.43,0-87.68-10.53-87.68-23.51s39.25-23.5,87.68-23.5,87.67,10.52,87.67,23.5S260.62,295.38,212.2,295.38Z"/><path class="cls-4" d="M311.58,123.31a99.39,99.39,0,1,0-170.09,69.82l70.71,81.09,70.71-81.09h0A99.07,99.07,0,0,0,311.58,123.31ZM212.2,197a77.92,77.92,0,1,1,77.92-77.91A77.91,77.91,0,0,1,212.2,197Z"/><path class="cls-5" d="M30.26,73.86H98V90.59H50.16V110H94v15.46H50.16v22.19H99v16.73H30.26Z"/><path class="cls-5" d="M172.14,73.86h39c23.45,0,41.08,14.83,41.08,44.75,0,26.24-13.44,45.76-41.08,45.76h-39ZM192,147.64h17.75c11.53,0,22.56-7.1,22.56-27.13,0-18.25-6.46-29.92-26.11-29.92H192Z"/><path class="cls-5" d="M402.63,129.07c0,24.46-14.45,36.38-38.66,36.38-24.47,0-38.54-11.66-38.54-36.38V72.78h19.9v56.29c0,9.88,2.54,19.65,18.64,19.65,14.19,0,18.76-6.09,18.76-19.65V72.78h19.9Z"/></g></svg>